<svg xmlns="http://www.w3.org/2000/svg" xmlns:xlink="http://www.w3.org/1999/xlink" viewBox="0 0 500 500"><defs><clipPath id="freepik--clip-path--inject-97"><path d="M247.28,105.61s-8.51,2.57-11.28,13.86.39,16,.39,16-4.55-4.55-6.93-.39,3.37,7.72,5.94,8.51,2.77,1,3.37,1,.2,4-4.36,12.68-11.88,12.08-23,15.44-14.06,14.66-14.06,23-.4,22.78,7.72,39.61,20.4,31.68,27.73,40.79,10.49,15.25,6.53,27.73-12.67,16.43-9.7,32.08c2.68,14.11,15.87,19.75,28.91,15.66,7.08-2.23,10.37-7.12,16.07-11,5.31-3.66,13.65-4.68,20-4.82,0,0-3.56-4.16-13.27-1.39s-19.4,10.5-26.93,10.3-7.13-15.64,3.17-26.93,36.83-20.79,45.94-42.18-2.37-62-8.71-77.43S284.51,170,284.51,170s-11.48-.79-13.86-6.14-.4-9.11-.4-9.11,12.28-6.93,11.69-13.47-6.73-19.8-12.68-29.3S251.44,102.64,247.28,105.61Z" style="fill:#fff;stroke:#263238;stroke-linecap:round;stroke-linejoin:round"></path></clipPath><clipPath id="freepik--clip-path-2--inject-97"><path d="M320.6,202.46s-12.18-3.18-29.94,3.47c-7.75,2.9-21.43,7.88-27,10.08s-9.61,3.94-8.66,6.15,33.56,4.41,47.27,7.56,28.2.47,32.62-4.25,2.2-13.4.78-16.55a15.63,15.63,0,0,0-2.05-3.78" style="fill:#fff;stroke:#263238;stroke-linecap:round;stroke-linejoin:round;stroke-width:0.75px"></path></clipPath><clipPath id="freepik--clip-path-3--inject-97"><path d="M207.43,173.52s-10.37.9-17.14,8.46-4.1,15.76-4.41,16.86-4.73,6.46-2.84,17.8,9.45,24.43,13.71,24.58,14.81-7.4,19.69-12.29,8.36-14,6-24.73-4.09-12.45-5.51-16.55S207.43,173.52,207.43,173.52Z" style="fill:#fff;stroke:#263238;stroke-linecap:round;stroke-linejoin:round;stroke-width:0.75px"></path></clipPath><clipPath id="freepik--clip-path-4--inject-97"><path d="M202,213.49a157.54,157.54,0,0,1,17.8-6.46c7.25-1.89,30.57-2.2,39.55-2.2s14.34-.32,17.81-.32a80.52,80.52,0,0,1,9.77,1,17,17,0,0,0,2.05.15l.94.16s-28.2,15.44-38.13,21.75-31.51,11.81-42.39,13.86-17.51,2.67-20.5-4.58a53.34,53.34,0,0,1-3.6-14" style="fill:#fff;stroke:#263238;stroke-linecap:round;stroke-linejoin:round;stroke-width:0.75px"></path></clipPath></defs><g id="freepik--background-simple--inject-97"><path d="M87.82,332.62s41.35,52.36,112,54.49,133.85-41.91,186-76.24S455,219.11,429,171.74s-73.27-31.16-130-64.46S232.22,56.49,166.46,59.49s-120.21,73.25-117.81,152S87.82,332.62,87.82,332.62Z" style="fill:#BA68C8"></path><path d="M87.82,332.62s41.35,52.36,112,54.49,133.85-41.91,186-76.24S455,219.11,429,171.74s-73.27-31.16-130-64.46S232.22,56.49,166.46,59.49s-120.21,73.25-117.81,152S87.82,332.62,87.82,332.62Z" style="fill:#fff;opacity:0.7000000000000001"></path></g></svg>